#!OML:ASF F:\VICON\USERDATA\INSTALL\rory3\rory3.ASF
:FULLY-SPECIFIED
:DEGREES
1310
root 0.0868572 18.7383 -4.81787 -6.98632 12.0041 1.26613
lowerback 24.1804 -8.20813 -12.8232
upperback 8.62613 -13.5291 -2.11166
thorax -1.11968 -6.97656 7.74432
lowerneck -19.9438 -0.979676 -6.62053
upperneck 0.53967 -0.663472 13.0684
head 3.45254 0.327053 5.12489
rclavicle 9.66093e-014 -1.74931e-014
rhumerus -36.3112 -16.1743 -44.1657
rradius 57.1455
rwrist -29.3649
rhand -19.3887 4.39001
rfingers 7.12502
rthumb 6.92997 -25.4766
lclavicle 9.66093e-014 -1.74931e-014
lhumerus 28.6721 -8.03005 95.3065
lradius 144.291
lwrist -5.05748
lhand -40.7248 16.71
lfingers 7.12502
lthumb -13.6665 46.2413
rfemur -92.3614 -4.43051 11.1288
rtibia 119.105
rfoot -9.67128 -4.96138
rtoes -12.343
lfemur -3.23308 5.09952 -23.4908
ltibia 22.4143
lfoot -8.43153 -2.95912
ltoes 12.6682
1311
root 0.102867 18.7388 -4.83292 -6.9738 11.8803 1.28482
lowerback 24.4511 -8.32042 -12.7953
upperback 8.67957 -13.6977 -2.13684
thorax -1.16945 -7.05616 7.77111
lowerneck -20.0594 -0.975139 -6.57683
upperneck 0.428253 -0.652456 13.0225
head 3.43395 0.330557 5.10418
rclavicle 9.74045e-014 -3.18055e-014
rhumerus -36.3408 -16.7542 -43.8011
rradius 57.0434
rwrist -29.2319
rhand -19.3225 4.57113
rfingers 7.12502
rthumb 6.99382 -25.2933
lclavicle 9.74045e-014 -3.18055e-014
lhumerus 28.4998 -7.96785 95.8217
lradius 144.953
lwrist -2.76399
lhand -39.1349 18.7412
lfingers 7.12502
lthumb -12.1338 48.3693
rfemur -93.144 -4.51193 11.2953
rtibia 119.331
rfoot -9.65571 -5.02263
rtoes -12.4208
lfemur -3.22813 5.31583 -23.536
ltibia 22.3189
lfoot -8.33368 -3.05096
ltoes 12.8215
1312
root 0.118826 18.7401 -4.84337 -7.05222 11.7909 1.2832
lowerback 24.6976 -8.42318 -12.7444
upperback 8.75861 -13.8428 -2.15543
thorax -1.18731 -7.1279 7.78276
lowerneck -20.1942 -0.975044 -6.64873
upperneck 0.442392 -0.63347 13.0356
head 3.45696 0.344351 5.12402
rclavicle -7.196e-014 7.95139e-015
rhumerus -36.4243 -17.4106 -43.3713
rradius 56.9614
rwrist -29.1593
rhand -19.3004 4.60522
rfingers 7.12502
rthumb 7.01518 -25.2585
lclavicle -7.196e-014 7.95139e-015
lhumerus 28.2692 -8.62173 96.134
lradius 144.313
lwrist -4.2697
lhand -41.1869 19.846
lfingers 7.12502
lthumb -14.1118 49.3468
rfemur -93.6986 -4.60926 11.439
rtibia 119.524
rfoot -9.53837 -4.99253
rtoes -11.7888
lfemur -3.05483 5.53766 -23.5468
ltibia 22.0874
lfoot -8.18447 -3.1502
ltoes 12.831
1313
root 0.13648 18.7392 -4.84741 -7.17753 11.6997 1.38942
lowerback 24.8744 -8.48594 -12.7389
upperback 8.87078 -13.9364 -2.21486
thorax -1.14432 -7.18032 7.74892
lowerneck -20.2372 -1.01082 -6.7166
upperneck 0.338667 -0.651021 12.9738
head 3.43241 0.330482 5.1135
rclavicle 9.97899e-014 -1.59028e-014
rhumerus -36.5911 -18.1103 -42.8863
rradius 56.9001
rwrist -29.2679
rhand -18.9522 4.96794
rfingers 7.12502
rthumb 7.35126 -24.8843
lclavicle 9.97899e-014 -1.59028e-014
lhumerus 27.9566 -8.62192 96.7375
lradius 144.731
lwrist -2.75371
lhand -41.2269 18.6629
lfingers 7.12502
lthumb -14.1503 48.1611
rfemur -94.1765 -4.82686 11.5209
rtibia 119.954
rfoot -9.69524 -4.86237
rtoes -11.5658
lfemur -2.74332 5.78005 -23.6742
ltibia 21.7906
lfoot -8.0028 -3.24792
ltoes 12.4731
1314
root 0.155638 18.7451 -4.85003 -7.30374 11.5916 1.64739
lowerback 25.0818 -8.50128 -12.8921
upperback 8.98162 -14.0108 -2.29976
thorax -1.08725 -7.22679 7.76906
lowerneck -20.3867 -1.03281 -6.68643
upperneck 0.31194 -0.672614 12.8547
head 3.44628 0.317249 5.06987
rclavicle 4.13472e-014 1.74931e-014
rhumerus -36.7671 -18.8138 -42.3996
rradius 56.8722
rwrist -29.4899
rhand -18.8694 5.06098
rfingers 7.12502
rthumb 7.43124 -24.7885
lclavicle 4.13472e-014 1.74931e-014
lhumerus 27.5386 -8.05418 97.3447
lradius 144.93
lwrist -1.92237
lhand -40.275 13.7915
lfingers 7.12502
lthumb -13.2329 43.3514
rfemur -94.6093 -4.97221 11.3681
rtibia 120.16
rfoot -9.65919 -4.85644
rtoes -11.7958
lfemur -2.38421 5.99636 -23.9698
ltibia 21.4984
lfoot -7.89268 -3.28026
ltoes 12.4166
1315
root 0.171608 18.7461 -4.85552 -7.39368 11.4103 1.76338
lowerback 25.2169 -8.4842 -12.9875
upperback 9.11184 -14.0153 -2.29679
thorax -0.977945 -7.24673 7.82575
lowerneck -20.6053 -1.05783 -6.61475
upperneck 0.304348 -0.703994 12.686
head 3.47604 0.299222 5.00354
rclavicle -1.76123e-013 6.83819e-014
rhumerus -36.881 -19.5987 -41.8536
rradius 56.7225
rwrist -29.47
rhand -19.1197 5.13923
rfingers 7.12502
rthumb 7.18959 -24.7186
lclavicle -1.76123e-013 6.83819e-014
lhumerus 27.2856 -8.10932 97.5897
lradius 145.088
lwrist -1.76421
lhand -40.5128 14.5251
lfingers 7.12502
lthumb -13.4621 44.0701
rfemur -95.0549 -5.03238 11.3595
rtibia 120.394
rfoot -9.6826 -4.79348
rtoes -11.3739
lfemur -2.09829 6.23046 -24.1087
ltibia 21.1617
lfoot -7.76094 -3.26136
ltoes 12.579
1316
root 0.184177 18.7428 -4.85944 -7.48485 11.2361 1.75277
lowerback 25.2895 -8.50948 -12.9851
upperback 9.24807 -14.042 -2.26485
thorax -0.843892 -7.27934 7.85521
lowerneck -20.6233 -1.09837 -6.57652
upperneck 0.0917492 -0.741153 12.5493
head 3.41456 0.268694 4.94814
rclavicle 2.98177e-014 5.40694e-014
rhumerus -36.9608 -20.258 -41.3561
rradius 56.6136
rwrist -29.3612
rhand -18.8548 5.2655
rfingers 7.12502
rthumb 7.4453 -24.5835
lclavicle 2.98177e-014 5.40694e-014
lhumerus 27.0444 -8.43278 97.7101
lradius 144.986
lwrist -2.39336
lhand -40.2633 17.0025
lfingers 7.12502
lthumb -13.2215 46.5632
rfemur -95.4243 -5.06259 11.505
rtibia 120.693
rfoot -9.7657 -4.77735
rtoes -10.8331
lfemur -1.81766 6.40554 -24.1019
ltibia 20.7884
lfoot -7.59342 -3.23354
ltoes 12.7406
1317
root 0.199612 18.7476 -4.86233 -7.60118 11.1418 1.9389
lowerback 25.4622 -8.53571 -13.1129
upperback 9.36543 -14.1174 -2.29252
thorax -0.751224 -7.33205 7.91448
lowerneck -20.6074 -1.11366 -6.6087
upperneck -0.208326 -0.726692 12.486
head 3.31799 0.264408 4.93164
rclavicle 5.52621e-014 2.22639e-014
rhumerus -37.0476 -20.8639 -40.911
rradius 56.5914
rwrist -29.3898
rhand -18.2509 5.66073
rfingers 7.12502
rthumb 8.02814 -24.1668
lclavicle 5.52621e-014 2.22639e-014
lhumerus 26.8035 -8.48449 97.9296
lradius 145.233
lwrist -1.60339
lhand -41.971 11.5518
lfingers 7.12502
lthumb -14.8672 40.9984
rfemur -95.6704 -5.11603 11.3735
rtibia 120.77
rfoot -9.59661 -4.93826
rtoes -11.2925
lfemur -1.39345 6.53142 -24.3186
ltibia 20.2991
lfoot -7.35846 -3.16755
ltoes 12.9115
1318
root 0.216635 18.7391 -4.86325 -7.5553 11.1943 2.58272
lowerback 25.5617 -8.51946 -13.5576
upperback 9.46633 -14.2085 -2.46223
thorax -0.594031 -7.39862 7.96837
lowerneck -20.8343 -1.11975 -6.6502
upperneck -0.241364 -0.719691 12.5716
head 3.34283 0.278074 4.96942
rclavicle 3.77691e-014 -2.22639e-014
rhumerus -37.2499 -21.6728 -40.4596
rradius 56.521
rwrist -29.4299
rhand -17.7505 6.14658
rfingers 7.12502
rthumb 8.51114 -23.6619
lclavicle 3.77691e-014 -2.22639e-014
lhumerus 26.6647 -8.52207 98.105
lradius 145.211
lwrist -1.02555
lhand -43.5156 8.4792
lfingers 7.12502
lthumb -16.3548 37.8096
rfemur -96.0248 -5.73603 10.7719
rtibia 121.251
rfoot -9.81212 -4.48272
rtoes -10.4933
lfemur -1.0831 6.61746 -25.0634
ltibia 19.88
lfoot -7.16648 -3.15971
ltoes 12.7586
